<svg width="158" height="29" viewBox="0 0 158 29" fill="none" xmlns="http://www.w3.org/2000/svg">
<path d="M0.363623 0.399999H12.3636L21.8836 22.2H22.6436V0.399999H29.4436V29H17.4436L7.88362 7.2H7.16362V29H0.363623V0.399999ZM61.3577 11.32L57.3577 14.72L61.3577 18.12V29H54.5577V18.12H39.0777V29H32.2777V18.12L36.2777 14.72L32.2777 11.32V0.399999H39.0777V11.32H54.5577V0.399999H61.3577V11.32ZM75.3917 7.2H64.1917V0.399999H93.2717V7.2H82.1917V29H75.3917V7.2ZM96.1058 0.399999H102.906V22.2H118.386V0.399999H125.186V29H96.1058V0.399999ZM128.02 0.399999H157.1V22.2H134.82V29H128.02V0.399999ZM150.3 15.4V7.2H134.82V15.4H150.3Z" fill="white"/>
</svg>
